<mxfile host="Electron" modified="2024-02-09T16:58:28.950Z" agent="Mozilla/5.0 (Windows NT 10.0; Win64; x64) AppleWebKit/537.36 (KHTML, like Gecko) draw.io/22.1.16 Chrome/120.0.6099.109 Electron/28.1.0 Safari/537.36" etag="4wk2QC97cP6UBk5PQgTc" version="22.1.16" type="device">
  <diagram name="Page-1" id="BeeQXuH5mpLVNXQqc5U8">
    <mxGraphModel dx="1390" dy="1533" grid="0" gridSize="10" guides="1" tooltips="1" connect="1" arrows="1" fold="1" page="1" pageScale="1" pageWidth="850" pageHeight="1100" math="0" shadow="0">
      <root>
        <mxCell id="0" />
        <mxCell id="1" parent="0" />
        <mxCell id="66zhnWMjhhO7CBgq-leG-1" value="" style="edgeStyle=orthogonalEdgeStyle;shape=connector;curved=0;rounded=1;orthogonalLoop=1;jettySize=auto;html=1;labelBackgroundColor=default;strokeColor=#666666;strokeWidth=3;align=center;verticalAlign=middle;fontFamily=Helvetica;fontSize=12;fontColor=#666666;endArrow=openThin;endFill=0;fillColor=#FAE5C7;" parent="1" edge="1">
          <mxGeometry relative="1" as="geometry">
            <mxPoint x="260" y="1325.034482758621" as="sourcePoint" />
          </mxGeometry>
        </mxCell>
        <mxCell id="66zhnWMjhhO7CBgq-leG-2" value="" style="edgeStyle=orthogonalEdgeStyle;shape=connector;curved=0;rounded=1;orthogonalLoop=1;jettySize=auto;html=1;labelBackgroundColor=default;strokeColor=#666666;strokeWidth=3;align=center;verticalAlign=middle;fontFamily=Helvetica;fontSize=12;fontColor=#666666;endArrow=openThin;endFill=0;fillColor=#FAE5C7;" parent="1" edge="1">
          <mxGeometry relative="1" as="geometry">
            <mxPoint x="288.3800000000001" y="1445" as="targetPoint" />
          </mxGeometry>
        </mxCell>
        <mxCell id="66zhnWMjhhO7CBgq-leG-156" value="" style="group;fillColor=#232136;strokeColor=#232136;strokeWidth=25;container=0;" parent="1" vertex="1" connectable="0">
          <mxGeometry x="1117" y="14" width="734" height="607" as="geometry" />
        </mxCell>
        <mxCell id="66zhnWMjhhO7CBgq-leG-3" value="Start" style="ellipse;whiteSpace=wrap;html=1;aspect=fixed;strokeColor=#DB918D;fontColor=#FFFFFF;fillColor=none;strokeWidth=3;container=0;fontSize=15;" parent="1" vertex="1">
          <mxGeometry x="1193" y="45.49999999999994" width="50" height="50" as="geometry" />
        </mxCell>
        <mxCell id="66zhnWMjhhO7CBgq-leG-4" value="Sleep for use defined interval" style="rounded=1;whiteSpace=wrap;html=1;strokeColor=#DB918D;fontColor=#FFFFFF;fillColor=none;strokeWidth=3;container=0;fontSize=15;" parent="1" vertex="1">
          <mxGeometry x="1275" y="50.50000000000001" width="133" height="40" as="geometry" />
        </mxCell>
        <mxCell id="66zhnWMjhhO7CBgq-leG-5" style="edgeStyle=orthogonalEdgeStyle;shape=connector;curved=0;rounded=1;orthogonalLoop=1;jettySize=auto;html=1;labelBackgroundColor=default;strokeColor=#DB918D;strokeWidth=3;align=center;verticalAlign=middle;fontFamily=Helvetica;fontSize=12;fontColor=#FFFFFF;endArrow=openThin;endFill=0;fillColor=#FAE5C7;" parent="1" source="66zhnWMjhhO7CBgq-leG-3" target="66zhnWMjhhO7CBgq-leG-4" edge="1">
          <mxGeometry relative="1" as="geometry" />
        </mxCell>
        <mxCell id="66zhnWMjhhO7CBgq-leG-6" value="Check next location" style="rounded=1;whiteSpace=wrap;html=1;strokeColor=#DB918D;fontColor=#FFFFFF;fillColor=none;strokeWidth=3;container=0;fontSize=15;" parent="1" vertex="1">
          <mxGeometry x="1512.9199999999998" y="143.97" width="120" height="33.87" as="geometry" />
        </mxCell>
        <mxCell id="66zhnWMjhhO7CBgq-leG-7" value="Child Locations or &lt;br style=&quot;font-size: 15px;&quot;&gt;data requirements" style="rhombus;whiteSpace=wrap;html=1;rounded=0;strokeColor=#DB918D;strokeWidth=3;align=center;verticalAlign=middle;fontFamily=Helvetica;fontSize=15;fontColor=#FFFFFF;fillColor=none;spacingTop=-1;container=0;" parent="1" vertex="1">
          <mxGeometry x="1310" y="112" width="173.13" height="97.81" as="geometry" />
        </mxCell>
        <mxCell id="66zhnWMjhhO7CBgq-leG-8" value="" style="edgeStyle=orthogonalEdgeStyle;shape=connector;curved=0;rounded=1;orthogonalLoop=1;jettySize=auto;html=1;labelBackgroundColor=default;strokeColor=#DB918D;strokeWidth=3;align=center;verticalAlign=middle;fontFamily=Helvetica;fontSize=12;fontColor=#FFFFFF;endArrow=openThin;endFill=0;fillColor=#FAE5C7;entryX=1;entryY=0.5;entryDx=0;entryDy=0;" parent="1" source="66zhnWMjhhO7CBgq-leG-6" edge="1" target="66zhnWMjhhO7CBgq-leG-7">
          <mxGeometry relative="1" as="geometry">
            <mxPoint x="1481" y="183" as="targetPoint" />
          </mxGeometry>
        </mxCell>
        <mxCell id="66zhnWMjhhO7CBgq-leG-9" value="Data requirement" style="text;html=1;strokeColor=none;fillColor=none;align=left;verticalAlign=middle;whiteSpace=wrap;rounded=0;fontSize=12;fontFamily=Helvetica;fontColor=#FFFFFF;container=0;" parent="1" vertex="1">
          <mxGeometry x="1409.94" y="219.80999999999995" width="60.06" height="30" as="geometry" />
        </mxCell>
        <mxCell id="66zhnWMjhhO7CBgq-leG-10" style="edgeStyle=orthogonalEdgeStyle;shape=connector;curved=0;rounded=1;orthogonalLoop=1;jettySize=auto;html=1;exitX=0.5;exitY=0;exitDx=0;exitDy=0;entryX=0;entryY=0.5;entryDx=0;entryDy=0;labelBackgroundColor=default;strokeColor=#DB918D;strokeWidth=3;align=center;verticalAlign=middle;fontFamily=Helvetica;fontSize=12;fontColor=#FFFFFF;endArrow=openThin;endFill=0;fillColor=#FAE5C7;" parent="1" source="66zhnWMjhhO7CBgq-leG-11" target="66zhnWMjhhO7CBgq-leG-7" edge="1">
          <mxGeometry relative="1" as="geometry" />
        </mxCell>
        <mxCell id="66zhnWMjhhO7CBgq-leG-11" value="Check next child location." style="rounded=1;whiteSpace=wrap;html=1;strokeColor=#DB918D;fontColor=#FFFFFF;fillColor=none;strokeWidth=3;container=0;fontSize=15;" parent="1" vertex="1">
          <mxGeometry x="1176" y="214.80999999999995" width="120" height="40" as="geometry" />
        </mxCell>
        <mxCell id="66zhnWMjhhO7CBgq-leG-12" style="edgeStyle=orthogonalEdgeStyle;shape=connector;curved=0;rounded=1;orthogonalLoop=1;jettySize=auto;html=1;labelBackgroundColor=default;strokeColor=#DB918D;strokeWidth=3;align=center;verticalAlign=middle;fontFamily=Helvetica;fontSize=12;fontColor=#FFFFFF;endArrow=openThin;endFill=0;fillColor=#FAE5C7;exitX=0.5;exitY=1;exitDx=0;exitDy=0;" parent="1" source="66zhnWMjhhO7CBgq-leG-7" target="66zhnWMjhhO7CBgq-leG-11" edge="1">
          <mxGeometry relative="1" as="geometry">
            <Array as="points">
              <mxPoint x="1400" y="232.80999999999995" />
            </Array>
          </mxGeometry>
        </mxCell>
        <mxCell id="66zhnWMjhhO7CBgq-leG-13" value="Data requirements &lt;br style=&quot;font-size: 15px;&quot;&gt;left to check?" style="rhombus;whiteSpace=wrap;html=1;rounded=0;strokeColor=#DB918D;strokeWidth=3;align=center;verticalAlign=middle;fontFamily=Helvetica;fontSize=15;fontColor=#FFFFFF;fillColor=none;spacingTop=4;container=0;" parent="1" vertex="1">
          <mxGeometry x="1319.76" y="247.84" width="160.44" height="91.31" as="geometry" />
        </mxCell>
        <mxCell id="66zhnWMjhhO7CBgq-leG-14" value="" style="edgeStyle=orthogonalEdgeStyle;shape=connector;curved=0;rounded=1;orthogonalLoop=1;jettySize=auto;html=1;labelBackgroundColor=default;strokeColor=#DB918D;strokeWidth=3;align=center;verticalAlign=middle;fontFamily=Helvetica;fontSize=12;fontColor=#FFFFFF;endArrow=openThin;endFill=0;fillColor=#FAE5C7;" parent="1" source="66zhnWMjhhO7CBgq-leG-7" target="66zhnWMjhhO7CBgq-leG-13" edge="1">
          <mxGeometry relative="1" as="geometry">
            <mxPoint x="1400" y="252.80999999999995" as="targetPoint" />
            <Array as="points">
              <mxPoint x="1400" y="242.80999999999995" />
              <mxPoint x="1400" y="242.80999999999995" />
            </Array>
          </mxGeometry>
        </mxCell>
        <mxCell id="66zhnWMjhhO7CBgq-leG-15" value="Child locations" style="text;html=1;strokeColor=none;fillColor=none;align=center;verticalAlign=middle;whiteSpace=wrap;rounded=0;fontSize=12;fontFamily=Helvetica;fontColor=#FFFFFF;container=0;" parent="1" vertex="1">
          <mxGeometry x="1303.65" y="217.30999999999995" width="86.35" height="15" as="geometry" />
        </mxCell>
        <mxCell id="66zhnWMjhhO7CBgq-leG-16" value="No" style="text;html=1;strokeColor=none;fillColor=none;align=center;verticalAlign=middle;whiteSpace=wrap;rounded=0;fontSize=12;fontFamily=Helvetica;fontColor=#FFFFFF;container=0;" parent="1" vertex="1">
          <mxGeometry x="1473.9099999999999" y="261.99999999999994" width="36.25" height="20" as="geometry" />
        </mxCell>
        <mxCell id="66zhnWMjhhO7CBgq-leG-17" value="Yes" style="text;html=1;strokeColor=none;fillColor=none;align=center;verticalAlign=middle;whiteSpace=wrap;rounded=0;fontSize=12;fontFamily=Helvetica;fontColor=#FFFFFF;container=0;" parent="1" vertex="1">
          <mxGeometry x="1390" y="322.80999999999995" width="60" height="30" as="geometry" />
        </mxCell>
        <mxCell id="66zhnWMjhhO7CBgq-leG-18" value="Check component&#39;s last readings. Set to &lt;i style=&quot;font-size: 15px;&quot;&gt;Fault&lt;/i&gt; all where &lt;b style=&quot;font-size: 15px;&quot;&gt;timeout&lt;/b&gt; has exceded" style="rounded=1;whiteSpace=wrap;html=1;strokeColor=#DB918D;fontColor=#FFFFFF;fillColor=none;strokeWidth=3;container=0;fontSize=15;" parent="1" vertex="1">
          <mxGeometry x="1155.45" y="330.31" width="149.65" height="104" as="geometry" />
        </mxCell>
        <mxCell id="66zhnWMjhhO7CBgq-leG-19" value="Count number of &lt;i style=&quot;font-size: 15px;&quot;&gt;Coherent&lt;/i&gt; components." style="rounded=1;whiteSpace=wrap;html=1;strokeColor=#DB918D;fontColor=#FFFFFF;fillColor=none;strokeWidth=3;container=0;fontSize=15;" parent="1" vertex="1">
          <mxGeometry x="1154.9" y="453.8" width="150.75" height="53.38" as="geometry" />
        </mxCell>
        <mxCell id="66zhnWMjhhO7CBgq-leG-20" value="" style="edgeStyle=orthogonalEdgeStyle;shape=connector;curved=0;rounded=1;orthogonalLoop=1;jettySize=auto;html=1;labelBackgroundColor=default;strokeColor=#DB918D;strokeWidth=3;align=center;verticalAlign=middle;fontFamily=Helvetica;fontSize=12;fontColor=#FFFFFF;endArrow=openThin;endFill=0;fillColor=#FAE5C7;" parent="1" edge="1">
          <mxGeometry relative="1" as="geometry">
            <mxPoint x="1230" y="444" as="sourcePoint" />
            <Array as="points">
              <mxPoint x="1229.89" y="433" />
              <mxPoint x="1229.89" y="433" />
            </Array>
            <mxPoint x="1230" y="454" as="targetPoint" />
          </mxGeometry>
        </mxCell>
        <mxCell id="66zhnWMjhhO7CBgq-leG-21" value="" style="edgeStyle=orthogonalEdgeStyle;shape=connector;curved=0;rounded=1;orthogonalLoop=1;jettySize=auto;html=1;labelBackgroundColor=default;strokeColor=#DB918D;strokeWidth=3;align=center;verticalAlign=middle;fontFamily=Helvetica;fontSize=12;fontColor=#FFFFFF;endArrow=openThin;endFill=0;fillColor=#FAE5C7;" parent="1" source="66zhnWMjhhO7CBgq-leG-22" target="66zhnWMjhhO7CBgq-leG-18" edge="1">
          <mxGeometry relative="1" as="geometry" />
        </mxCell>
        <mxCell id="66zhnWMjhhO7CBgq-leG-22" value="Check next &lt;br style=&quot;font-size: 15px;&quot;&gt;data requirement" style="rounded=1;whiteSpace=wrap;html=1;strokeColor=#DB918D;fontColor=#FFFFFF;fillColor=none;strokeWidth=3;container=0;fontSize=15;" parent="1" vertex="1">
          <mxGeometry x="1341.59" y="362.31" width="130" height="40" as="geometry" />
        </mxCell>
        <mxCell id="66zhnWMjhhO7CBgq-leG-23" style="edgeStyle=orthogonalEdgeStyle;shape=connector;curved=0;rounded=1;orthogonalLoop=1;jettySize=auto;html=1;labelBackgroundColor=default;strokeColor=#DB918D;strokeWidth=3;align=center;verticalAlign=middle;fontFamily=Helvetica;fontSize=12;fontColor=#FFFFFF;endArrow=openThin;endFill=0;fillColor=#FAE5C7;" parent="1" source="66zhnWMjhhO7CBgq-leG-13" target="66zhnWMjhhO7CBgq-leG-22" edge="1">
          <mxGeometry relative="1" as="geometry">
            <mxPoint x="1399.952380952381" y="342.78559874577513" as="sourcePoint" />
            <mxPoint x="1400" y="383.80999999999995" as="targetPoint" />
            <Array as="points">
              <mxPoint x="1400" y="359" />
              <mxPoint x="1400" y="359" />
            </Array>
          </mxGeometry>
        </mxCell>
        <mxCell id="66zhnWMjhhO7CBgq-leG-26" value="&lt;i style=&quot;font-size: 15px;&quot;&gt;Coherent&lt;/i&gt; &lt;b style=&quot;font-size: 15px;&quot;&gt;count&lt;/b&gt;&lt;br style=&quot;font-size: 15px;&quot;&gt;is greater or equal &lt;br style=&quot;font-size: 15px;&quot;&gt;to needed?" style="rhombus;whiteSpace=wrap;html=1;rounded=0;strokeColor=#DB918D;strokeWidth=3;align=center;verticalAlign=middle;fontFamily=Helvetica;fontSize=15;fontColor=#FFFFFF;fillColor=none;spacingTop=5;container=0;" parent="1" vertex="1">
          <mxGeometry x="1335.1299999999999" y="432.15" width="169.75" height="96.68" as="geometry" />
        </mxCell>
        <mxCell id="66zhnWMjhhO7CBgq-leG-27" style="edgeStyle=orthogonalEdgeStyle;shape=connector;curved=0;rounded=1;orthogonalLoop=1;jettySize=auto;html=1;labelBackgroundColor=default;strokeColor=#DB918D;strokeWidth=3;align=center;verticalAlign=middle;fontFamily=Helvetica;fontSize=12;fontColor=#FFFFFF;endArrow=openThin;endFill=0;fillColor=#FAE5C7;" parent="1" source="66zhnWMjhhO7CBgq-leG-19" target="66zhnWMjhhO7CBgq-leG-26" edge="1">
          <mxGeometry relative="1" as="geometry" />
        </mxCell>
        <mxCell id="66zhnWMjhhO7CBgq-leG-28" value="Yes" style="text;html=1;strokeColor=none;fillColor=none;align=center;verticalAlign=middle;whiteSpace=wrap;rounded=0;fontSize=12;fontFamily=Helvetica;fontColor=#FFFFFF;container=0;" parent="1" vertex="1">
          <mxGeometry x="1311.59" y="515.3599999999999" width="30" height="13.63" as="geometry" />
        </mxCell>
        <mxCell id="66zhnWMjhhO7CBgq-leG-29" value="No" style="text;html=1;strokeColor=none;fillColor=none;align=center;verticalAlign=middle;whiteSpace=wrap;rounded=0;fontSize=12;fontFamily=Helvetica;fontColor=#FFFFFF;container=0;" parent="1" vertex="1">
          <mxGeometry x="1319.76" y="557.1799999999998" width="13.65" height="10.62" as="geometry" />
        </mxCell>
        <mxCell id="66zhnWMjhhO7CBgq-leG-30" style="edgeStyle=orthogonalEdgeStyle;shape=connector;curved=0;rounded=1;orthogonalLoop=1;jettySize=auto;html=1;labelBackgroundColor=default;strokeColor=#DB918D;strokeWidth=3;align=center;verticalAlign=middle;fontFamily=Helvetica;fontSize=12;fontColor=#FFFFFF;endArrow=openThin;endFill=0;fillColor=#FAE5C7;entryX=0;entryY=0.5;entryDx=0;entryDy=0;" parent="1" source="66zhnWMjhhO7CBgq-leG-35" target="66zhnWMjhhO7CBgq-leG-13" edge="1">
          <mxGeometry relative="1" as="geometry">
            <Array as="points">
              <mxPoint x="1121" y="537" />
              <mxPoint x="1121" y="294" />
            </Array>
          </mxGeometry>
        </mxCell>
        <mxCell id="66zhnWMjhhO7CBgq-leG-31" style="edgeStyle=orthogonalEdgeStyle;shape=connector;curved=0;rounded=1;orthogonalLoop=1;jettySize=auto;html=1;entryX=0;entryY=0.5;entryDx=0;entryDy=0;labelBackgroundColor=default;strokeColor=#DB918D;strokeWidth=3;align=center;verticalAlign=middle;fontFamily=Helvetica;fontSize=12;fontColor=#FFFFFF;endArrow=openThin;endFill=0;fillColor=#FAE5C7;exitX=0;exitY=0.5;exitDx=0;exitDy=0;" parent="1" source="66zhnWMjhhO7CBgq-leG-34" target="66zhnWMjhhO7CBgq-leG-13" edge="1">
          <mxGeometry relative="1" as="geometry">
            <Array as="points">
              <mxPoint x="1121" y="586" />
              <mxPoint x="1121" y="294" />
            </Array>
          </mxGeometry>
        </mxCell>
        <mxCell id="66zhnWMjhhO7CBgq-leG-32" value="Are all &lt;b style=&quot;font-size: 15px;&quot;&gt;required&lt;/b&gt; &lt;br style=&quot;font-size: 15px;&quot;&gt;data requirements &lt;br style=&quot;font-size: 15px;&quot;&gt;&lt;i style=&quot;font-size: 15px;&quot;&gt;Coherent&lt;/i&gt;?" style="rhombus;whiteSpace=wrap;html=1;rounded=0;strokeColor=#DB918D;strokeWidth=3;align=center;verticalAlign=middle;fontFamily=Helvetica;fontSize=15;fontColor=#FFFFFF;fillColor=none;spacingTop=7;container=0;" parent="1" vertex="1">
          <mxGeometry x="1504.87" y="243" width="163.13" height="101" as="geometry" />
        </mxCell>
        <mxCell id="66zhnWMjhhO7CBgq-leG-33" style="edgeStyle=orthogonalEdgeStyle;shape=connector;curved=0;rounded=1;orthogonalLoop=1;jettySize=auto;html=1;labelBackgroundColor=default;strokeColor=#DB918D;strokeWidth=3;align=center;verticalAlign=middle;fontFamily=Helvetica;fontSize=12;fontColor=#FFFFFF;endArrow=openThin;endFill=0;fillColor=#FAE5C7;" parent="1" source="66zhnWMjhhO7CBgq-leG-13" target="66zhnWMjhhO7CBgq-leG-32" edge="1">
          <mxGeometry relative="1" as="geometry" />
        </mxCell>
        <mxCell id="66zhnWMjhhO7CBgq-leG-34" value="Set data requirement to&lt;i style=&quot;font-size: 15px;&quot;&gt; Fault&lt;/i&gt;" style="rounded=1;whiteSpace=wrap;html=1;strokeColor=#DB918D;fontColor=#FFFFFF;fillColor=none;strokeWidth=3;container=0;fontSize=15;" parent="1" vertex="1">
          <mxGeometry x="1157.25" y="567.8" width="148.75" height="36.62" as="geometry" />
        </mxCell>
        <mxCell id="66zhnWMjhhO7CBgq-leG-25" style="edgeStyle=orthogonalEdgeStyle;shape=connector;curved=0;rounded=1;orthogonalLoop=1;jettySize=auto;html=1;exitX=0.5;exitY=1;exitDx=0;exitDy=0;entryX=1;entryY=0.5;entryDx=0;entryDy=0;labelBackgroundColor=default;strokeColor=#DB918D;strokeWidth=3;align=center;verticalAlign=middle;fontFamily=Helvetica;fontSize=12;fontColor=#FFFFFF;endArrow=openThin;endFill=0;fillColor=#FAE5C7;" parent="1" source="66zhnWMjhhO7CBgq-leG-26" target="66zhnWMjhhO7CBgq-leG-34" edge="1">
          <mxGeometry relative="1" as="geometry" />
        </mxCell>
        <mxCell id="66zhnWMjhhO7CBgq-leG-35" value="Set data requirement to &lt;i style=&quot;font-size: 15px;&quot;&gt;Coherent&lt;/i&gt;" style="rounded=1;whiteSpace=wrap;html=1;strokeColor=#DB918D;fontColor=#FFFFFF;fillColor=none;strokeWidth=3;container=0;fontSize=15;" parent="1" vertex="1">
          <mxGeometry x="1156.9" y="520.6800000000001" width="146.75" height="40.37" as="geometry" />
        </mxCell>
        <mxCell id="66zhnWMjhhO7CBgq-leG-37" value="Set Location to &lt;i style=&quot;font-size: 15px;&quot;&gt;Fault&lt;/i&gt;" style="rounded=1;whiteSpace=wrap;html=1;strokeColor=#DB918D;fontColor=#FFFFFF;fillColor=none;strokeWidth=3;container=0;fontSize=15;" parent="1" vertex="1">
          <mxGeometry x="1672.6200000000001" y="209.80999999999995" width="150" height="30" as="geometry" />
        </mxCell>
        <mxCell id="66zhnWMjhhO7CBgq-leG-24" style="edgeStyle=orthogonalEdgeStyle;shape=connector;curved=0;rounded=1;orthogonalLoop=1;jettySize=auto;html=1;exitX=0.5;exitY=1;exitDx=0;exitDy=0;labelBackgroundColor=default;strokeColor=#DB918D;strokeWidth=3;align=center;verticalAlign=middle;fontFamily=Helvetica;fontSize=12;fontColor=#FFFFFF;endArrow=openThin;endFill=0;fillColor=#FAE5C7;" parent="1" source="66zhnWMjhhO7CBgq-leG-26" target="66zhnWMjhhO7CBgq-leG-35" edge="1">
          <mxGeometry relative="1" as="geometry">
            <Array as="points">
              <mxPoint x="1420" y="541" />
            </Array>
          </mxGeometry>
        </mxCell>
        <mxCell id="66zhnWMjhhO7CBgq-leG-38" style="edgeStyle=orthogonalEdgeStyle;shape=connector;curved=0;rounded=1;orthogonalLoop=1;jettySize=auto;html=1;entryX=0;entryY=0.5;entryDx=0;entryDy=0;labelBackgroundColor=default;strokeColor=#DB918D;strokeWidth=3;align=center;verticalAlign=middle;fontFamily=Helvetica;fontSize=12;fontColor=#FFFFFF;endArrow=openThin;endFill=0;fillColor=#FAE5C7;" parent="1" source="66zhnWMjhhO7CBgq-leG-32" target="66zhnWMjhhO7CBgq-leG-37" edge="1">
          <mxGeometry relative="1" as="geometry">
            <Array as="points">
              <mxPoint x="1553" y="224.80999999999995" />
            </Array>
          </mxGeometry>
        </mxCell>
        <mxCell id="66zhnWMjhhO7CBgq-leG-39" value="Yes" style="text;html=1;strokeColor=none;fillColor=none;align=center;verticalAlign=middle;whiteSpace=wrap;rounded=0;fontSize=12;fontFamily=Helvetica;fontColor=#FFFFFF;container=0;" parent="1" vertex="1">
          <mxGeometry x="1521" y="330.30999999999995" width="36.25" height="20" as="geometry" />
        </mxCell>
        <mxCell id="66zhnWMjhhO7CBgq-leG-40" value="How many&amp;nbsp;&lt;br style=&quot;font-size: 15px;&quot;&gt;&lt;b style=&quot;font-size: 15px;&quot;&gt;optional&amp;nbsp;&lt;/b&gt;data &lt;br style=&quot;font-size: 15px;&quot;&gt;requirements are&lt;br style=&quot;font-size: 15px;&quot;&gt;&lt;i style=&quot;font-size: 15px;&quot;&gt;Coherent&lt;/i&gt;?" style="rhombus;whiteSpace=wrap;html=1;rounded=0;strokeColor=#DB918D;strokeWidth=3;align=center;verticalAlign=middle;fontFamily=Helvetica;fontSize=15;fontColor=#FFFFFF;fillColor=none;spacingTop=1;container=0;" parent="1" vertex="1">
          <mxGeometry x="1498.12" y="367.5" width="176.62" height="102.68" as="geometry" />
        </mxCell>
        <mxCell id="66zhnWMjhhO7CBgq-leG-41" style="edgeStyle=orthogonalEdgeStyle;shape=connector;curved=0;rounded=1;orthogonalLoop=1;jettySize=auto;html=1;labelBackgroundColor=default;strokeColor=#DB918D;strokeWidth=3;align=center;verticalAlign=middle;fontFamily=Helvetica;fontSize=12;fontColor=#FFFFFF;endArrow=openThin;endFill=0;fillColor=#FAE5C7;" parent="1" source="66zhnWMjhhO7CBgq-leG-32" target="66zhnWMjhhO7CBgq-leG-40" edge="1">
          <mxGeometry relative="1" as="geometry" />
        </mxCell>
        <mxCell id="66zhnWMjhhO7CBgq-leG-42" value="No" style="text;html=1;strokeColor=none;fillColor=none;align=center;verticalAlign=middle;whiteSpace=wrap;rounded=0;fontSize=12;fontFamily=Helvetica;fontColor=#FFFFFF;container=0;" parent="1" vertex="1">
          <mxGeometry x="1521" y="232.80999999999995" width="36.25" height="20" as="geometry" />
        </mxCell>
        <mxCell id="66zhnWMjhhO7CBgq-leG-43" value="Some" style="text;html=1;strokeColor=none;fillColor=none;align=center;verticalAlign=middle;whiteSpace=wrap;rounded=0;fontSize=12;fontFamily=Helvetica;fontColor=#FFFFFF;container=0;" parent="1" vertex="1">
          <mxGeometry x="1588" y="508.98999999999984" width="36.25" height="20" as="geometry" />
        </mxCell>
        <mxCell id="uQQNaX8pMhLln5cnVtD1-7" value="" style="edgeStyle=orthogonalEdgeStyle;rounded=0;orthogonalLoop=1;jettySize=auto;html=1;" edge="1" parent="1" source="66zhnWMjhhO7CBgq-leG-44" target="66zhnWMjhhO7CBgq-leG-46">
          <mxGeometry relative="1" as="geometry" />
        </mxCell>
        <mxCell id="66zhnWMjhhO7CBgq-leG-44" value="All" style="text;html=1;strokeColor=none;fillColor=none;align=center;verticalAlign=middle;whiteSpace=wrap;rounded=0;fontSize=12;fontFamily=Helvetica;fontColor=#FFFFFF;container=0;" parent="1" vertex="1">
          <mxGeometry x="1584" y="466.99999999999983" width="36.25" height="20" as="geometry" />
        </mxCell>
        <mxCell id="66zhnWMjhhO7CBgq-leG-45" value="None" style="text;html=1;strokeColor=none;fillColor=none;align=center;verticalAlign=middle;whiteSpace=wrap;rounded=0;fontSize=12;fontFamily=Helvetica;fontColor=#FFFFFF;container=0;" parent="1" vertex="1">
          <mxGeometry x="1588" y="552.4899999999998" width="36.25" height="20" as="geometry" />
        </mxCell>
        <mxCell id="66zhnWMjhhO7CBgq-leG-46" value="Set Location to&amp;nbsp;&lt;i style=&quot;font-size: 15px;&quot;&gt;Coherent&lt;br style=&quot;font-size: 15px;&quot;&gt;&lt;/i&gt;" style="rounded=1;whiteSpace=wrap;html=1;strokeColor=#DB918D;fontColor=#FFFFFF;fillColor=none;strokeWidth=3;container=0;fontSize=15;" parent="1" vertex="1">
          <mxGeometry x="1629.87" y="473.84000000000003" width="176" height="30" as="geometry" />
        </mxCell>
        <mxCell id="66zhnWMjhhO7CBgq-leG-47" style="edgeStyle=orthogonalEdgeStyle;shape=connector;curved=0;rounded=1;orthogonalLoop=1;jettySize=auto;html=1;exitX=0.5;exitY=1;exitDx=0;exitDy=0;labelBackgroundColor=default;strokeColor=#DB918D;strokeWidth=3;align=center;verticalAlign=middle;fontFamily=Helvetica;fontSize=12;fontColor=#FFFFFF;endArrow=openThin;endFill=0;fillColor=#FAE5C7;" parent="1" source="66zhnWMjhhO7CBgq-leG-40" target="66zhnWMjhhO7CBgq-leG-46" edge="1">
          <mxGeometry relative="1" as="geometry">
            <Array as="points">
              <mxPoint x="1586" y="487" />
            </Array>
          </mxGeometry>
        </mxCell>
        <mxCell id="66zhnWMjhhO7CBgq-leG-48" value="Set Location to &lt;i style=&quot;font-size: 15px;&quot;&gt;Degraded&lt;br style=&quot;font-size: 15px;&quot;&gt;&lt;/i&gt;" style="rounded=1;whiteSpace=wrap;html=1;strokeColor=#DB918D;fontColor=#FFFFFF;fillColor=none;strokeWidth=3;container=0;fontSize=15;" parent="1" vertex="1">
          <mxGeometry x="1629.87" y="520.0000000000001" width="173" height="30" as="geometry" />
        </mxCell>
        <mxCell id="66zhnWMjhhO7CBgq-leG-49" style="edgeStyle=orthogonalEdgeStyle;shape=connector;curved=0;rounded=1;orthogonalLoop=1;jettySize=auto;html=1;exitX=0.5;exitY=1;exitDx=0;exitDy=0;entryX=0;entryY=0.5;entryDx=0;entryDy=0;labelBackgroundColor=default;strokeColor=#DB918D;strokeWidth=3;align=center;verticalAlign=middle;fontFamily=Helvetica;fontSize=12;fontColor=#FFFFFF;endArrow=openThin;endFill=0;fillColor=#FAE5C7;" parent="1" source="66zhnWMjhhO7CBgq-leG-40" target="66zhnWMjhhO7CBgq-leG-48" edge="1">
          <mxGeometry relative="1" as="geometry" />
        </mxCell>
        <mxCell id="66zhnWMjhhO7CBgq-leG-50" value="Set Location to&amp;nbsp;&lt;i style=&quot;font-size: 15px;&quot;&gt;Critical&lt;br style=&quot;font-size: 15px;&quot;&gt;&lt;/i&gt;" style="rounded=1;whiteSpace=wrap;html=1;strokeColor=#DB918D;fontColor=#FFFFFF;fillColor=none;strokeWidth=3;container=0;fontSize=15;" parent="1" vertex="1">
          <mxGeometry x="1629.87" y="563" width="170" height="30" as="geometry" />
        </mxCell>
        <mxCell id="66zhnWMjhhO7CBgq-leG-51" style="edgeStyle=orthogonalEdgeStyle;shape=connector;curved=0;rounded=1;orthogonalLoop=1;jettySize=auto;html=1;exitX=0.5;exitY=1;exitDx=0;exitDy=0;entryX=0;entryY=0.5;entryDx=0;entryDy=0;labelBackgroundColor=default;strokeColor=#DB918D;strokeWidth=3;align=center;verticalAlign=middle;fontFamily=Helvetica;fontSize=12;fontColor=#FFFFFF;endArrow=openThin;endFill=0;fillColor=#FAE5C7;" parent="1" source="66zhnWMjhhO7CBgq-leG-40" target="66zhnWMjhhO7CBgq-leG-50" edge="1">
          <mxGeometry relative="1" as="geometry" />
        </mxCell>
        <mxCell id="66zhnWMjhhO7CBgq-leG-52" style="edgeStyle=orthogonalEdgeStyle;shape=connector;curved=0;rounded=1;orthogonalLoop=1;jettySize=auto;html=1;labelBackgroundColor=default;strokeColor=#DB918D;strokeWidth=3;align=center;verticalAlign=middle;fontFamily=Helvetica;fontSize=12;fontColor=#FFFFFF;endArrow=openThin;endFill=0;fillColor=#FAE5C7;" parent="1" source="66zhnWMjhhO7CBgq-leG-53" target="66zhnWMjhhO7CBgq-leG-4" edge="1">
          <mxGeometry relative="1" as="geometry">
            <Array as="points">
              <mxPoint x="1573" y="18" />
              <mxPoint x="1399" y="18" />
            </Array>
          </mxGeometry>
        </mxCell>
        <mxCell id="66zhnWMjhhO7CBgq-leG-53" value="Locations&lt;br style=&quot;font-size: 15px;&quot;&gt;left to check?" style="rhombus;whiteSpace=wrap;html=1;rounded=0;strokeColor=#DB918D;strokeWidth=3;align=center;verticalAlign=middle;fontFamily=Helvetica;fontSize=15;fontColor=#FFFFFF;fillColor=none;spacingTop=-3;container=0;" parent="1" vertex="1">
          <mxGeometry x="1510.16" y="39.34" width="125.52" height="62.31" as="geometry" />
        </mxCell>
        <mxCell id="66zhnWMjhhO7CBgq-leG-54" style="edgeStyle=orthogonalEdgeStyle;shape=connector;curved=0;rounded=1;orthogonalLoop=1;jettySize=auto;html=1;labelBackgroundColor=default;strokeColor=#DB918D;strokeWidth=3;align=center;verticalAlign=middle;fontFamily=Helvetica;fontSize=12;fontColor=#FFFFFF;endArrow=openThin;endFill=0;fillColor=#FAE5C7;exitX=1;exitY=0.5;exitDx=0;exitDy=0;entryX=0;entryY=0.5;entryDx=0;entryDy=0;" parent="1" source="66zhnWMjhhO7CBgq-leG-4" target="66zhnWMjhhO7CBgq-leG-53" edge="1">
          <mxGeometry relative="1" as="geometry">
            <Array as="points">
              <mxPoint x="1445" y="70" />
              <mxPoint x="1445" y="70" />
            </Array>
          </mxGeometry>
        </mxCell>
        <mxCell id="66zhnWMjhhO7CBgq-leG-55" style="edgeStyle=orthogonalEdgeStyle;shape=connector;curved=0;rounded=1;orthogonalLoop=1;jettySize=auto;html=1;labelBackgroundColor=default;strokeColor=#DB918D;strokeWidth=3;align=center;verticalAlign=middle;fontFamily=Helvetica;fontSize=12;fontColor=#FFFFFF;endArrow=openThin;endFill=0;fillColor=#FAE5C7;" parent="1" source="66zhnWMjhhO7CBgq-leG-53" target="66zhnWMjhhO7CBgq-leG-6" edge="1">
          <mxGeometry relative="1" as="geometry" />
        </mxCell>
        <mxCell id="66zhnWMjhhO7CBgq-leG-56" style="edgeStyle=orthogonalEdgeStyle;shape=connector;curved=0;rounded=1;orthogonalLoop=1;jettySize=auto;html=1;entryX=1;entryY=0.5;entryDx=0;entryDy=0;labelBackgroundColor=default;strokeColor=#DB918D;strokeWidth=3;align=center;verticalAlign=middle;fontFamily=Helvetica;fontSize=12;fontColor=#FFFFFF;endArrow=openThin;endFill=0;fillColor=#FAE5C7;exitX=0.5;exitY=0;exitDx=0;exitDy=0;" parent="1" source="66zhnWMjhhO7CBgq-leG-37" target="66zhnWMjhhO7CBgq-leG-53" edge="1">
          <mxGeometry relative="1" as="geometry">
            <Array as="points">
              <mxPoint x="1748" y="70" />
            </Array>
          </mxGeometry>
        </mxCell>
        <mxCell id="66zhnWMjhhO7CBgq-leG-57" style="edgeStyle=orthogonalEdgeStyle;shape=connector;curved=0;rounded=1;orthogonalLoop=1;jettySize=auto;html=1;entryX=0.5;entryY=1;entryDx=0;entryDy=0;labelBackgroundColor=default;strokeColor=#DB918D;strokeWidth=3;align=center;verticalAlign=middle;fontFamily=Helvetica;fontSize=12;fontColor=#FFFFFF;endArrow=openThin;endFill=0;fillColor=#FAE5C7;" parent="1" source="66zhnWMjhhO7CBgq-leG-46" target="66zhnWMjhhO7CBgq-leG-61" edge="1">
          <mxGeometry relative="1" as="geometry">
            <Array as="points">
              <mxPoint x="1843" y="485" />
              <mxPoint x="1843" y="436" />
              <mxPoint x="1748" y="436" />
            </Array>
          </mxGeometry>
        </mxCell>
        <mxCell id="66zhnWMjhhO7CBgq-leG-58" style="edgeStyle=orthogonalEdgeStyle;shape=connector;curved=0;rounded=1;orthogonalLoop=1;jettySize=auto;html=1;labelBackgroundColor=default;strokeColor=#DB918D;strokeWidth=3;align=center;verticalAlign=middle;fontFamily=Helvetica;fontSize=12;fontColor=#FFFFFF;endArrow=openThin;endFill=0;fillColor=#FAE5C7;entryX=0.5;entryY=1;entryDx=0;entryDy=0;" parent="1" source="66zhnWMjhhO7CBgq-leG-48" target="66zhnWMjhhO7CBgq-leG-61" edge="1">
          <mxGeometry relative="1" as="geometry">
            <mxPoint x="1625" y="182.80999999999995" as="targetPoint" />
            <Array as="points">
              <mxPoint x="1843" y="539" />
              <mxPoint x="1843" y="436" />
              <mxPoint x="1748" y="436" />
            </Array>
          </mxGeometry>
        </mxCell>
        <mxCell id="66zhnWMjhhO7CBgq-leG-59" style="edgeStyle=orthogonalEdgeStyle;shape=connector;curved=0;rounded=1;orthogonalLoop=1;jettySize=auto;html=1;exitX=1;exitY=0.5;exitDx=0;exitDy=0;entryX=0.5;entryY=1;entryDx=0;entryDy=0;labelBackgroundColor=default;strokeColor=#DB918D;strokeWidth=3;align=center;verticalAlign=middle;fontFamily=Helvetica;fontSize=12;fontColor=#FFFFFF;endArrow=openThin;endFill=0;fillColor=#FAE5C7;" parent="1" source="66zhnWMjhhO7CBgq-leG-50" target="66zhnWMjhhO7CBgq-leG-61" edge="1">
          <mxGeometry relative="1" as="geometry">
            <Array as="points">
              <mxPoint x="1843" y="581" />
              <mxPoint x="1843" y="436" />
              <mxPoint x="1748" y="436" />
            </Array>
          </mxGeometry>
        </mxCell>
        <mxCell id="66zhnWMjhhO7CBgq-leG-60" style="edgeStyle=orthogonalEdgeStyle;shape=connector;curved=0;rounded=1;orthogonalLoop=1;jettySize=auto;html=1;entryX=1;entryY=0.5;entryDx=0;entryDy=0;labelBackgroundColor=default;strokeColor=#DB918D;strokeWidth=3;align=center;verticalAlign=middle;fontFamily=Helvetica;fontSize=12;fontColor=#FFFFFF;endArrow=openThin;endFill=0;fillColor=#FAE5C7;" parent="1" source="66zhnWMjhhO7CBgq-leG-61" target="66zhnWMjhhO7CBgq-leG-53" edge="1">
          <mxGeometry relative="1" as="geometry">
            <Array as="points">
              <mxPoint x="1846" y="353" />
              <mxPoint x="1846" y="70" />
            </Array>
          </mxGeometry>
        </mxCell>
        <mxCell id="66zhnWMjhhO7CBgq-leG-61" value="Set parent location to worst status of child locations" style="rounded=1;whiteSpace=wrap;html=1;strokeColor=#DB918D;fontColor=#FFFFFF;fillColor=none;strokeWidth=3;container=0;fontSize=15;" parent="1" vertex="1">
          <mxGeometry x="1677" y="322.80999999999995" width="141.87" height="60" as="geometry" />
        </mxCell>
        <mxCell id="66zhnWMjhhO7CBgq-leG-62" value="No" style="text;html=1;strokeColor=none;fillColor=none;align=center;verticalAlign=middle;whiteSpace=wrap;rounded=0;fontSize=12;fontFamily=Helvetica;fontColor=#FFFFFF;container=0;" parent="1" vertex="1">
          <mxGeometry x="1574.68" y="23.999999999999947" width="23.5" height="18.5" as="geometry" />
        </mxCell>
        <mxCell id="66zhnWMjhhO7CBgq-leG-63" value="Yes" style="text;html=1;strokeColor=none;fillColor=none;align=center;verticalAlign=middle;whiteSpace=wrap;rounded=0;fontSize=12;fontFamily=Helvetica;fontColor=#FFFFFF;container=0;" parent="1" vertex="1">
          <mxGeometry x="1524" y="122.99999999999994" width="36.25" height="20" as="geometry" />
        </mxCell>
        <mxCell id="66zhnWMjhhO7CBgq-leG-36" style="edgeStyle=orthogonalEdgeStyle;shape=connector;curved=0;rounded=1;orthogonalLoop=1;jettySize=auto;html=1;exitX=0.5;exitY=1;exitDx=0;exitDy=0;labelBackgroundColor=default;strokeColor=#DB918D;strokeWidth=3;align=center;verticalAlign=middle;fontFamily=Helvetica;fontSize=12;fontColor=#FFFFFF;endArrow=openThin;endFill=0;fillColor=#FAE5C7;" parent="1" source="66zhnWMjhhO7CBgq-leG-37" target="66zhnWMjhhO7CBgq-leG-61" edge="1">
          <mxGeometry relative="1" as="geometry" />
        </mxCell>
      </root>
    </mxGraphModel>
  </diagram>
</mxfile>
